<svg width="58" height="58" viewBox="0 0 58 58" fill="none" xmlns="http://www.w3.org/2000/svg">
<g filter="url(#filter0_d_1330_4362)">
<circle cx="29" cy="28" r="25.75" fill="#E24D7A" stroke="white" stroke-width="1.5"/>
<mask id="mask0_1330_4362" style="mask-type:alpha" maskUnits="userSpaceOnUse" x="4" y="3" width="50" height="50">
<circle cx="29" cy="28" r="25" fill="white"/>
</mask>
<g mask="url(#mask0_1330_4362)">
<path d="M40.6663 22.1667C40.6663 28.6099 35.4428 33.8333 28.9997 33.8333C22.5565 33.8333 17.333 28.6098 17.333 22.1667C17.333 15.7234 22.5565 10.5 28.9997 10.5C35.4428 10.5 40.6663 15.7235 40.6663 22.1667Z" fill="white"/>
<path d="M49.056 47.6359C49.056 53.8576 40.089 58.9016 29.028 58.9016C17.967 58.9016 9 53.8576 9 47.6359C9 41.4141 17.967 36.3701 29.028 36.3701C40.089 36.3701 49.056 41.4141 49.056 47.6359Z" fill="white"/>
</g>
</g>
<defs>
<filter id="filter0_d_1330_4362" x="0.5" y="0.5" width="57" height="57" filterUnits="userSpaceOnUse" color-interpolation-filters="sRGB">
<feFlood flood-opacity="0" result="BackgroundImageFix"/>
<feColorMatrix in="SourceAlpha" type="matrix" values="0 0 0 0 0 0 0 0 0 0 0 0 0 0 0 0 0 0 127 0" result="hardAlpha"/>
<feOffset dy="1"/>
<feGaussianBlur stdDeviation="1"/>
<feComposite in2="hardAlpha" operator="out"/>
<feColorMatrix type="matrix" values="0 0 0 0 0 0 0 0 0 0 0 0 0 0 0 0 0 0 0.1 0"/>
<feBlend mode="normal" in2="BackgroundImageFix" result="effect1_dropShadow_1330_4362"/>
<feBlend mode="normal" in="SourceGraphic" in2="effect1_dropShadow_1330_4362" result="shape"/>
</filter>
</defs>
</svg>
