<svg width="25" height="24" viewBox="0 0 25 24" fill="none" xmlns="http://www.w3.org/2000/svg">
<path d="M14.0441 10.456C13.2249 9.6372 12.1142 9.17725 10.9561 9.17725C9.7979 9.17725 8.68716 9.6372 7.86805 10.456L4.77905 13.544C3.95993 14.3631 3.49976 15.474 3.49976 16.6325C3.49976 17.7909 3.95993 18.9018 4.77905 19.721C5.59818 20.5401 6.70914 21.0003 7.86755 21.0003C9.02597 21.0003 10.1369 20.5401 10.9561 19.721L12.5001 18.177" stroke="#C1B8FB" stroke-width="2" stroke-linecap="round" stroke-linejoin="round"/>
<path d="M10.9561 13.5438C11.7752 14.3626 12.8859 14.8225 14.0441 14.8225C15.2022 14.8225 16.3129 14.3626 17.1321 13.5438L20.2211 10.4558C21.0402 9.63669 21.5004 8.52572 21.5004 7.36731C21.5004 6.2089 21.0402 5.09793 20.2211 4.27881C19.4019 3.45969 18.291 2.99951 17.1326 2.99951C15.9741 2.99951 14.8632 3.45969 14.0441 4.27881L12.5001 5.82281" stroke="#C1B8FB" stroke-width="2" stroke-linecap="round" stroke-linejoin="round"/>
</svg>
