<svg width="40" height="40" viewBox="0 0 40 40" fill="none" xmlns="http://www.w3.org/2000/svg">
<path fill-rule="evenodd" clip-rule="evenodd" d="M7.97918 29.1924C7.58866 29.5829 7.58866 30.2161 7.97918 30.6066L9.3934 32.0208C9.78392 32.4113 10.4171 32.4113 10.8076 32.0208L20 22.8284L29.1924 32.0208C29.5829 32.4113 30.2161 32.4113 30.6066 32.0208L32.0208 30.6066C32.4113 30.2161 32.4113 29.5829 32.0208 29.1924L22.8284 20L32.0208 10.8076C32.4113 10.4171 32.4113 9.7839 32.0208 9.39337L30.6066 7.97916C30.2161 7.58863 29.5829 7.58863 29.1924 7.97916L20 17.1715L10.8076 7.97916C10.4171 7.58864 9.78392 7.58864 9.3934 7.97916L7.97918 9.39338C7.58866 9.7839 7.58866 10.4171 7.97918 10.8076L17.1716 20L7.97918 29.1924Z" fill="#D9D5F0"/>
</svg>
