<svg width="19" height="13" viewBox="0 0 19 13" fill="none" xmlns="http://www.w3.org/2000/svg">
<path d="M17.6421 0.000376746C17.3002 0.00943523 16.9752 0.149118 16.7357 0.389895L7.00405 9.97572L2.12598 6.25827L2.12616 6.25845C1.7537 5.97419 1.25564 5.90734 0.819724 6.08289C0.383631 6.25845 0.0757249 6.64998 0.0121123 7.1096C-0.0515286 7.56942 0.138654 8.02779 0.511125 8.31187L6.31207 12.7272C6.56534 12.9209 6.88171 13.0171 7.20157 12.9975C7.5216 12.9781 7.82342 12.8446 8.05075 12.6218L18.5979 2.23263C18.8545 1.98841 18.9996 1.65195 19 1.30048C19.0006 0.949011 18.8563 0.61239 18.6005 0.367457C18.3445 0.122329 17.9987 -0.0099238 17.6421 0.000581273L17.6421 0.000376746Z" fill="#E45B6E"/>
</svg>
