<svg width="17" height="26" viewBox="0 0 17 26" fill="none" xmlns="http://www.w3.org/2000/svg">
<path d="M8.51698 0C3.82757 0 0 3.8274 0 8.51697V8.96528L0.0344189 9.65494C0.172312 10.379 0.482728 11.6203 1.1724 13.3789C2.20692 15.9304 4.31014 20.0339 8.55167 25.4475C10.5517 22.689 16.3793 14.3442 16.8963 9.96522V9.9308C16.9654 9.48249 16.9998 8.99975 16.9998 8.51701C17.034 3.82761 13.2066 3.93199e-05 8.51716 3.93199e-05L8.51698 0ZM8.48256 12.3097C6.41374 12.3097 4.7242 10.6201 4.7242 8.55133C4.7242 6.48252 6.41374 4.79298 8.48256 4.79298C10.5514 4.79298 12.2409 6.48252 12.2409 8.55133C12.2409 10.6201 10.5514 12.3097 8.48256 12.3097Z" fill="url(#paint0_linear_1199_6954)"/>
<defs>
<linearGradient id="paint0_linear_1199_6954" x1="-0.861486" y1="-1.01479e-06" x2="19.5465" y2="0.874703" gradientUnits="userSpaceOnUse">
<stop stop-color="#ED6890"/>
<stop offset="0.5" stop-color="#F47570"/>
<stop offset="1" stop-color="#F29866"/>
</linearGradient>
</defs>
</svg>
