<svg width="11" height="11" viewBox="0 0 11 11" fill="none" xmlns="http://www.w3.org/2000/svg">
<path fill-rule="evenodd" clip-rule="evenodd" d="M2.62697 10.0375L3.28553 9.37895L1.58487 7.67829L0.926316 8.33684V9.11118H1.85263V10.0375H2.62697ZM6.41184 3.32171C6.41184 3.21557 6.35877 3.1625 6.25263 3.1625C6.20439 3.1625 6.16338 3.17939 6.12961 3.21316L2.20724 7.13553C2.17346 7.1693 2.15658 7.21031 2.15658 7.25855C2.15658 7.36469 2.20965 7.41776 2.31579 7.41776C2.36403 7.41776 2.40504 7.40088 2.43882 7.36711L6.36118 3.44474C6.39496 3.41097 6.41184 3.36996 6.41184 3.32171ZM6.02105 1.93224L9.03158 4.94276L3.01053 10.9638H0V7.95329L6.02105 1.93224ZM10.9638 2.62697C10.9638 2.88268 10.8746 3.09978 10.6961 3.27829L9.49474 4.47961L6.48421 1.46908L7.68553 0.275C7.85921 0.0916667 8.07632 0 8.33684 0C8.59254 0 8.81206 0.0916667 8.99539 0.275L10.6961 1.96842C10.8746 2.15658 10.9638 2.3761 10.9638 2.62697Z" fill="#766C6F"/>
</svg>
