<svg width="40" height="40" viewBox="0 0 40 40" fill="none" xmlns="http://www.w3.org/2000/svg">
<circle opacity="0.18" cx="20" cy="20" r="20" fill="url(#paint0_linear_1199_7025)"/>
<path fill-rule="evenodd" clip-rule="evenodd" d="M16.3006 20.0089C15.3352 20.0387 14.5456 20.4201 13.9318 21.1531H12.7341C12.2454 21.1531 11.8343 21.0324 11.5006 20.7911C11.1669 20.5497 11 20.1966 11 19.7318C11 17.6283 11.3695 16.5765 12.1084 16.5765C12.1441 16.5765 12.2737 16.6391 12.4972 16.7642C12.7207 16.8894 13.0112 17.016 13.3687 17.1441C13.7263 17.2723 14.0808 17.3363 14.4324 17.3363C14.8317 17.3363 15.2279 17.2678 15.6212 17.1307C15.5914 17.3512 15.5765 17.5479 15.5765 17.7207C15.5765 18.549 15.8179 19.3117 16.3006 20.0089ZM25.8737 25.7028C25.8737 26.4179 25.6562 26.9825 25.2212 27.3966C24.7862 27.8108 24.2082 28.0179 23.4871 28.0179H15.6749C14.9538 28.0179 14.3758 27.8108 13.9408 27.3966C13.5058 26.9825 13.2883 26.4179 13.2883 25.7028C13.2883 25.387 13.2987 25.0786 13.3196 24.7777C13.3404 24.4767 13.3821 24.152 13.4447 23.8034C13.5073 23.4547 13.5862 23.1315 13.6816 22.8335C13.7769 22.5356 13.905 22.2451 14.0659 21.962C14.2268 21.679 14.4115 21.4376 14.6201 21.238C14.8287 21.0384 15.0834 20.879 15.3844 20.7598C15.6853 20.6406 16.0175 20.581 16.381 20.581C16.4406 20.581 16.5687 20.6451 16.7654 20.7732C16.962 20.9013 17.1795 21.0443 17.4179 21.2022C17.6562 21.3601 17.975 21.5032 18.3743 21.6313C18.7736 21.7594 19.1758 21.8235 19.581 21.8235C19.9862 21.8235 20.3885 21.7594 20.7877 21.6313C21.187 21.5032 21.5058 21.3601 21.7441 21.2022C21.9825 21.0443 22.2 20.9013 22.3966 20.7732C22.5933 20.6451 22.7214 20.581 22.781 20.581C23.1445 20.581 23.4767 20.6406 23.7777 20.7598C24.0786 20.879 24.3333 21.0384 24.5419 21.238C24.7505 21.4376 24.9352 21.679 25.0961 21.962C25.257 22.2451 25.3851 22.5356 25.4804 22.8335C25.5758 23.1315 25.6547 23.4547 25.7173 23.8034C25.7799 24.152 25.8216 24.4767 25.8425 24.7777C25.8633 25.0786 25.8737 25.387 25.8737 25.7028ZM16.7207 14.2883C16.7207 14.9199 16.4972 15.4592 16.0503 15.9061C15.6034 16.3531 15.0641 16.5765 14.4324 16.5765C13.8007 16.5765 13.2615 16.3531 12.8145 15.9061C12.3676 15.4592 12.1441 14.9199 12.1441 14.2883C12.1441 13.6566 12.3676 13.1173 12.8145 12.6704C13.2615 12.2235 13.8007 12 14.4324 12C15.0641 12 15.6034 12.2235 16.0503 12.6704C16.4972 13.1173 16.7207 13.6566 16.7207 14.2883ZM23.0134 17.7207C23.0134 18.6682 22.6782 19.4771 22.0078 20.1475C21.3374 20.8179 20.5285 21.1531 19.581 21.1531C18.6335 21.1531 17.8246 20.8179 17.1542 20.1475C16.4838 19.4771 16.1486 18.6682 16.1486 17.7207C16.1486 16.7732 16.4838 15.9642 17.1542 15.2939C17.8246 14.6235 18.6335 14.2883 19.581 14.2883C20.5285 14.2883 21.3374 14.6235 22.0078 15.2939C22.6782 15.9642 23.0134 16.7732 23.0134 17.7207ZM28.162 19.7318C28.162 20.1966 27.9952 20.5497 27.6615 20.7911C27.3277 21.0324 26.9166 21.1531 26.4279 21.1531H25.2302C24.6164 20.4201 23.8268 20.0387 22.8615 20.0089C23.3441 19.3117 23.5855 18.549 23.5855 17.7207C23.5855 17.5479 23.5706 17.3512 23.5408 17.1307C23.9341 17.2678 24.3304 17.3363 24.7296 17.3363C25.0812 17.3363 25.4358 17.2723 25.7933 17.1441C26.1508 17.016 26.4413 16.8894 26.6648 16.7642C26.8883 16.6391 27.0179 16.5765 27.0536 16.5765C27.7926 16.5765 28.162 17.6283 28.162 19.7318ZM27.0179 14.2883C27.0179 14.9199 26.7944 15.4592 26.3475 15.9061C25.9006 16.3531 25.3613 16.5765 24.7296 16.5765C24.098 16.5765 23.5587 16.3531 23.1117 15.9061C22.6648 15.4592 22.4413 14.9199 22.4413 14.2883C22.4413 13.6566 22.6648 13.1173 23.1117 12.6704C23.5587 12.2235 24.098 12 24.7296 12C25.3613 12 25.9006 12.2235 26.3475 12.6704C26.7944 13.1173 27.0179 13.6566 27.0179 14.2883Z" fill="url(#paint1_linear_1199_7025)"/>
<defs>
<linearGradient id="paint0_linear_1199_7025" x1="-2.02703" y1="-1.59511e-06" x2="45.8827" y2="3.07384" gradientUnits="userSpaceOnUse">
<stop stop-color="#ED6890"/>
<stop offset="0.5" stop-color="#F47570"/>
<stop offset="1" stop-color="#F29866"/>
</linearGradient>
<linearGradient id="paint1_linear_1199_7025" x1="10.1303" y1="12" x2="30.6735" y2="13.4122" gradientUnits="userSpaceOnUse">
<stop stop-color="#ED6890"/>
<stop offset="0.5" stop-color="#F47570"/>
<stop offset="1" stop-color="#F29866"/>
</linearGradient>
</defs>
</svg>
