<svg width="14" height="13" viewBox="0 0 14 13" fill="none" xmlns="http://www.w3.org/2000/svg">
<path d="M11.4619 0.851585H10.8761L10.7087 1.46535C10.5553 2.02324 10.0252 2.44172 9.46729 2.44172C9.16043 2.44172 8.86756 2.3162 8.7001 2.07908C8.51874 1.84197 8.46299 1.52119 8.54666 1.2143L8.64435 0.85166L6.74725 0.851562L6.5799 1.46532C6.42646 2.02321 5.89639 2.4417 5.32458 2.4417C5.01771 2.4417 4.73874 2.31618 4.55738 2.07906C4.37603 1.84194 4.32027 1.52117 4.40394 1.21427L4.50163 0.851637H3.88787C2.95332 0.851637 2.01879 1.57699 1.78167 2.51154L0.0658252 8.88602C-0.0737 9.38816 0.0100734 9.89031 0.302938 10.2529C0.581883 10.6156 1.01429 10.8249 1.50251 10.8249H2.35337V11.2015C2.35337 12.1919 3.16239 13.0008 4.15268 13.0008H11.4617C12.4521 13.0008 13.261 12.1918 13.261 11.2015L13.2611 2.65105C13.2611 1.66065 12.4521 0.851637 11.4618 0.851637L11.4619 0.851585ZM1.5166 9.7368C1.405 9.7368 1.26558 9.70888 1.18181 9.59727C1.09814 9.49959 1.08413 9.34625 1.13997 9.16489L2.56275 3.83656H11.2387L9.88573 8.88592C9.76021 9.33233 9.27197 9.73678 8.82566 9.73678L1.5166 9.7368ZM12.1733 11.2013C12.1733 11.5919 11.8525 11.9127 11.4619 11.9127L4.1529 11.9128C3.76234 11.9128 3.44155 11.592 3.44155 11.2014V10.8248H8.81173C9.74628 10.8248 10.6808 10.0994 10.9179 9.16488L12.1594 4.53397V11.2014L12.1733 11.2013Z" fill="#C54939"/>
<path d="M5.33858 1.93875C5.67337 1.93875 6.00808 1.6737 6.09175 1.33901L6.28702 0.599737C6.3707 0.264947 6.17542 0 5.85464 0C5.51985 0 5.18514 0.265047 5.10147 0.599737L4.9061 1.33901C4.82242 1.6598 5.0177 1.93875 5.33858 1.93875V1.93875Z" fill="#C54939"/>
<path d="M9.46761 1.93875C9.8024 1.93875 10.1371 1.6737 10.2208 1.33901L10.4161 0.599737C10.4997 0.264947 10.3045 0 9.98368 0C9.64889 0 9.31417 0.265047 9.2305 0.599737L9.02132 1.33901C8.93754 1.6598 9.13282 1.93875 9.46762 1.93875H9.46761Z" fill="#C54939"/>
<path d="M7.18057 5.57967L5.63228 6.80717L5.35334 6.43053C5.17198 6.19342 4.83727 6.13756 4.58615 6.31893C4.34903 6.50029 4.29318 6.835 4.47454 7.08613L5.08831 7.90907C5.17198 8.03458 5.3115 8.10434 5.45094 8.13226H5.5207C5.64622 8.13226 5.75782 8.09043 5.85549 8.02066L7.85008 6.44446C8.0872 6.26309 8.12903 5.91439 7.93376 5.67726C7.7525 5.42624 7.41769 5.38439 7.18059 5.57967L7.18057 5.57967Z" fill="#C54939"/>
</svg>
