<svg width="40" height="40" viewBox="0 0 40 40" fill="none" xmlns="http://www.w3.org/2000/svg">
<circle opacity="0.18" cx="20" cy="20" r="20" fill="url(#paint0_linear_1199_7016)"/>
<path d="M19.5 10C16.9805 10 14.564 11.0009 12.7825 12.7825C11.0009 14.564 10 16.9803 10 19.5C10 22.0197 11.0009 24.436 12.7825 26.2175C14.564 27.9991 16.9803 29 19.5 29C22.0197 29 24.436 27.9991 26.2175 26.2175C27.9991 24.436 29 22.0197 29 19.5C28.9972 16.9813 27.9953 14.5667 26.2143 12.7857C24.4334 11.0046 22.0186 10.0028 19.5 10ZM23.4431 23.4852C23.3317 23.5965 23.1807 23.659 23.0233 23.659C22.8658 23.659 22.7147 23.5965 22.6034 23.4852L19.9585 20.8411C19.4899 21.0154 18.9643 20.9327 18.5719 20.6228C18.1795 20.313 17.977 19.8209 18.0378 19.3247C18.0986 18.8284 18.4137 18.3997 18.8694 18.1938L18.8956 12.7941C18.8964 12.6372 18.9592 12.4869 19.0705 12.3761C19.1818 12.2654 19.3323 12.2033 19.4892 12.2033H19.4923C19.6498 12.2039 19.8005 12.2672 19.9113 12.3791C20.0221 12.4909 20.084 12.6423 20.0831 12.7998L20.0567 18.1995C20.2101 18.2703 20.3497 18.3679 20.469 18.4876C20.6631 18.6819 20.7975 18.9279 20.8558 19.1962C20.9141 19.4645 20.8941 19.7441 20.7983 20.0015L23.4431 22.6461C23.5542 22.7575 23.6167 22.9083 23.6167 23.0656C23.6167 23.2229 23.5542 23.3739 23.4431 23.4851L23.4431 23.4852ZM19.6293 19.3272C19.7123 19.4098 19.7251 19.5395 19.6603 19.6369C19.5953 19.7343 19.4706 19.7721 19.3624 19.7274C19.2543 19.6826 19.1929 19.5675 19.2158 19.4529C19.2388 19.3381 19.3397 19.2555 19.4567 19.2557C19.5215 19.2555 19.5836 19.2813 19.6293 19.3272H19.6293Z" fill="url(#paint1_linear_1199_7016)"/>
<defs>
<linearGradient id="paint0_linear_1199_7016" x1="-2.02703" y1="-1.59511e-06" x2="45.8827" y2="3.07384" gradientUnits="userSpaceOnUse">
<stop stop-color="#ED6890"/>
<stop offset="0.5" stop-color="#F47570"/>
<stop offset="1" stop-color="#F29866"/>
</linearGradient>
<linearGradient id="paint1_linear_1199_7016" x1="9.03716" y1="10" x2="31.7943" y2="11.4601" gradientUnits="userSpaceOnUse">
<stop stop-color="#ED6890"/>
<stop offset="0.5" stop-color="#F47570"/>
<stop offset="1" stop-color="#F29866"/>
</linearGradient>
</defs>
</svg>
