<svg width="22" height="22" viewBox="0 0 22 22" fill="none" xmlns="http://www.w3.org/2000/svg">
<path fill-rule="evenodd" clip-rule="evenodd" d="M11 0C4.92487 0 0 4.92487 0 11C0 17.0751 4.92487 22 11 22C17.0751 22 22 17.0751 22 11C22 4.92487 17.0751 0 11 0ZM13.293 7.57434C13.711 7.04634 13.986 6.91434 14.569 7.14534C15.1091 7.34656 15.1088 7.59876 15.1081 8.27498C15.108 8.30112 15.108 8.3279 15.108 8.35534V14.1963C15.108 14.8343 15.053 15.0103 14.283 15.0103C13.491 15.0103 13.447 14.8343 13.447 14.1963V9.73034L11.676 11.7983C11.313 12.2163 10.818 12.2163 10.455 11.7983L8.695 9.73034V14.1963C8.695 14.8343 8.64 15.0103 7.848 15.0103C7.078 15.0103 7.034 14.8343 7.034 14.1963V8.35534C7.034 7.61834 7.034 7.35434 7.562 7.14534C8.145 6.90334 8.42 7.04634 8.838 7.57434L11.071 10.3683L13.293 7.57434Z" fill="url(#paint0_linear_1199_6958)"/>
<defs>
<linearGradient id="paint0_linear_1199_6958" x1="-1.11486" y1="-8.7731e-07" x2="25.2355" y2="1.69061" gradientUnits="userSpaceOnUse">
<stop stop-color="#ED6890"/>
<stop offset="0.5" stop-color="#F47570"/>
<stop offset="1" stop-color="#F29866"/>
</linearGradient>
</defs>
</svg>
