<svg width="19" height="20" viewBox="0 0 19 20" fill="none" xmlns="http://www.w3.org/2000/svg">
<path fill-rule="evenodd" clip-rule="evenodd" d="M6.68142 16.2078V7.06494C6.68142 6.94372 6.64227 6.84416 6.56397 6.76623C6.48567 6.68831 6.38563 6.64935 6.26383 6.64935H5.42865C5.30686 6.64935 5.20681 6.68831 5.12851 6.76623C5.05021 6.84416 5.01106 6.94372 5.01106 7.06494V16.2078C5.01106 16.329 5.05021 16.4286 5.12851 16.5065C5.20681 16.5844 5.30686 16.6234 5.42865 16.6234H6.26383C6.38563 16.6234 6.48567 16.5844 6.56397 16.5065C6.64227 16.4286 6.68142 16.329 6.68142 16.2078ZM10.0221 16.2078V7.06494C10.0221 6.94372 9.98298 6.84416 9.90468 6.76623C9.82638 6.68831 9.72634 6.64935 9.60454 6.64935H8.76936C8.64757 6.64935 8.54752 6.68831 8.46922 6.76623C8.39092 6.84416 8.35177 6.94372 8.35177 7.06494V16.2078C8.35177 16.329 8.39092 16.4286 8.46922 16.5065C8.54752 16.5844 8.64757 16.6234 8.76936 16.6234H9.60454C9.72634 16.6234 9.82638 16.5844 9.90468 16.5065C9.98298 16.4286 10.0221 16.329 10.0221 16.2078ZM13.3628 16.2078V7.06494C13.3628 6.94372 13.3237 6.84416 13.2454 6.76623C13.1671 6.68831 13.067 6.64935 12.9452 6.64935H12.1101C11.9883 6.64935 11.8882 6.68831 11.8099 6.76623C11.7316 6.84416 11.6925 6.94372 11.6925 7.06494V16.2078C11.6925 16.329 11.7316 16.4286 11.8099 16.5065C11.8882 16.5844 11.9883 16.6234 12.1101 16.6234H12.9452C13.067 16.6234 13.1671 16.5844 13.2454 16.5065C13.3237 16.4286 13.3628 16.329 13.3628 16.2078ZM6.26383 3.32468H12.1101L11.4837 1.80519C11.4228 1.72727 11.3488 1.67965 11.2618 1.66234H7.12511C7.03811 1.67965 6.96416 1.72727 6.90326 1.80519L6.26383 3.32468ZM18.3739 3.74026V4.57143C18.3739 4.69264 18.3348 4.79221 18.2565 4.87013C18.1782 4.94805 18.0781 4.98701 17.9563 4.98701H16.7035V17.2987C16.7035 18.0173 16.4991 18.6385 16.0902 19.1623C15.6813 19.6861 15.1898 19.9481 14.6156 19.9481H3.7583C3.18411 19.9481 2.69258 19.6948 2.28369 19.1883C1.8748 18.6818 1.67035 18.0693 1.67035 17.3507V4.98701H0.417589C0.295792 4.98701 0.195745 4.94805 0.117447 4.87013C0.0391489 4.79221 0 4.69264 0 4.57143V3.74026C0 3.61905 0.0391489 3.51948 0.117447 3.44156C0.195745 3.36364 0.295792 3.32468 0.417589 3.32468H4.44993L5.3634 1.15584C5.4939 0.835498 5.72879 0.562771 6.06809 0.337662C6.40738 0.112554 6.75102 0 7.09901 0H11.2749C11.6229 0 11.9665 0.112554 12.3058 0.337662C12.6451 0.562771 12.88 0.835498 13.0105 1.15584L13.924 3.32468H17.9563C18.0781 3.32468 18.1782 3.36364 18.2565 3.44156C18.3348 3.51948 18.3739 3.61905 18.3739 3.74026Z" fill="#9B9396"/>
</svg>
