<svg width="40" height="40" viewBox="0 0 40 40" fill="none" xmlns="http://www.w3.org/2000/svg">
<circle opacity="0.18" cx="20" cy="20" r="20" fill="url(#paint0_linear_1199_7042)"/>
<path fill-rule="evenodd" clip-rule="evenodd" d="M19.5 11C14.2533 11 10 15.2533 10 20.5C10 25.7467 14.2533 30 19.5 30C24.7467 30 29 25.7467 29 20.5C29 15.2533 24.7467 11 19.5 11ZM21.48 17.5393C21.841 17.0833 22.0785 16.9693 22.582 17.1688C23.0484 17.3426 23.0482 17.5604 23.0475 18.1444C23.0475 18.167 23.0475 18.1901 23.0475 18.2138V23.2583C23.0475 23.8093 23 23.9613 22.335 23.9613C21.651 23.9613 21.613 23.8093 21.613 23.2583V19.4013L20.0835 21.1873C19.77 21.5483 19.3425 21.5483 19.029 21.1873L17.509 19.4013V23.2583C17.509 23.8093 17.4615 23.9613 16.7775 23.9613C16.1125 23.9613 16.0745 23.8093 16.0745 23.2583V18.2138C16.0745 17.5773 16.0745 17.3493 16.5305 17.1688C17.034 16.9598 17.2715 17.0833 17.6325 17.5393L19.561 19.9523L21.48 17.5393Z" fill="url(#paint1_linear_1199_7042)"/>
<defs>
<linearGradient id="paint0_linear_1199_7042" x1="-2.02703" y1="-1.59511e-06" x2="45.8827" y2="3.07384" gradientUnits="userSpaceOnUse">
<stop stop-color="#ED6890"/>
<stop offset="0.5" stop-color="#F47570"/>
<stop offset="1" stop-color="#F29866"/>
</linearGradient>
<linearGradient id="paint1_linear_1199_7042" x1="9.03716" y1="11" x2="31.7943" y2="12.4601" gradientUnits="userSpaceOnUse">
<stop stop-color="#ED6890"/>
<stop offset="0.5" stop-color="#F47570"/>
<stop offset="1" stop-color="#F29866"/>
</linearGradient>
</defs>
</svg>
