<svg width="22" height="22" viewBox="0 0 22 22" fill="none" xmlns="http://www.w3.org/2000/svg">
<path d="M11 0C8.08271 0 5.2846 1.15893 3.22189 3.22189C1.15893 5.28468 0 8.08251 0 11C0 13.9175 1.15893 16.7154 3.22189 18.7781C5.28468 20.8411 8.08251 22 11 22C13.9175 22 16.7154 20.8411 18.7781 18.7781C20.8411 16.7153 22 13.9175 22 11C21.9967 8.08363 20.8367 5.28781 18.7745 3.2255C16.7123 1.16319 13.9163 0.00329071 11 0ZM15.5657 15.6144C15.4366 15.7433 15.2619 15.8157 15.0796 15.8157C14.8973 15.8157 14.7223 15.7433 14.5935 15.6144L11.5308 12.5529C10.9883 12.7546 10.3797 12.6589 9.9253 12.3C9.47103 11.9414 9.2365 11.3715 9.30689 10.797C9.37728 10.2224 9.74223 9.72602 10.2699 9.48761L10.3001 3.23526C10.3011 3.05357 10.3738 2.87957 10.5027 2.75132C10.6315 2.62309 10.8058 2.55114 10.9875 2.55114H10.9911C11.1734 2.55192 11.3479 2.62513 11.4763 2.75477C11.6045 2.88425 11.6762 3.05951 11.6752 3.24183L11.6447 9.49418C11.8223 9.57617 11.9839 9.68919 12.122 9.82777C12.3468 10.0527 12.5023 10.3375 12.5699 10.6482C12.6374 10.9589 12.6142 11.2827 12.5032 11.5806L15.5657 14.6428C15.6944 14.7718 15.7667 14.9464 15.7667 15.1286C15.7667 15.3107 15.6944 15.4855 15.5657 15.6144L15.5657 15.6144ZM11.1497 10.7999C11.2458 10.8956 11.2607 11.0457 11.1856 11.1585C11.1103 11.2713 10.966 11.3151 10.8407 11.2633C10.7155 11.2114 10.6445 11.0782 10.6709 10.9454C10.6976 10.8125 10.8144 10.7169 10.9498 10.7172C11.0249 10.7169 11.0969 10.7468 11.1497 10.7999H11.1497Z" fill="url(#paint0_linear_1199_6950)"/>
<defs>
<linearGradient id="paint0_linear_1199_6950" x1="-1.11486" y1="-8.7731e-07" x2="25.2355" y2="1.69061" gradientUnits="userSpaceOnUse">
<stop stop-color="#ED6890"/>
<stop offset="0.5" stop-color="#F47570"/>
<stop offset="1" stop-color="#F29866"/>
</linearGradient>
</defs>
</svg>
