<svg width="16" height="11" viewBox="0 0 16 11" fill="none" xmlns="http://www.w3.org/2000/svg">
<path d="M14.8565 0.00031726C14.5686 0.00794546 14.2949 0.125573 14.0932 0.328333L5.89814 8.40061L1.7903 5.27012L1.79045 5.27027C1.4768 5.0309 1.05738 4.9746 0.690294 5.12243C0.323058 5.27027 0.0637683 5.59998 0.0101998 5.98704C-0.0433925 6.37425 0.116762 6.76024 0.430421 6.99947L5.31543 10.7176C5.52871 10.8807 5.79513 10.9617 6.06448 10.9453C6.33398 10.9289 6.58815 10.8165 6.77958 10.6288L15.6614 1.88011C15.8775 1.67445 15.9997 1.39112 16 1.09514C16.0005 0.799167 15.879 0.515696 15.6636 0.309437C15.448 0.103014 15.1568 -0.00835689 14.8565 0.000489493L14.8565 0.00031726Z" fill="#594BB1"/>
</svg>
