<svg width="21" height="21" viewBox="0 0 21 21" fill="none" xmlns="http://www.w3.org/2000/svg">
<path d="M10.9261 4.96095C10.6826 4.71744 10.3175 4.71744 10.0739 4.96095L6.14796 8.88693C5.90446 9.13043 5.90446 9.49557 6.14796 9.7391C6.39147 9.98261 6.7566 9.98261 7.00013 9.7391L9.89138 6.84785V15.3392C9.89138 15.6739 10.1652 15.9478 10.5 15.9478C10.8348 15.9478 11.1087 15.6739 11.1087 15.3392V6.84785L13.9696 9.70878C14.0912 9.83042 14.2435 9.89135 14.3957 9.89135C14.5479 9.89135 14.7001 9.83042 14.8217 9.70878C15.0652 9.46527 15.0652 9.10013 14.8217 8.8566L10.9261 4.96095Z" fill="white"/>
<path d="M10.5 0C4.71739 0 0 4.71745 0 10.5C0 16.2826 4.71745 21 10.5 21C16.2826 21 21 16.2826 21 10.5C21 4.71745 16.2826 0 10.5 0ZM10.5 19.7826C5.38706 19.7826 1.21739 15.6131 1.21739 10.5C1.21739 5.38707 5.3869 1.21739 10.5 1.21739C15.6129 1.21739 19.7826 5.3869 19.7826 10.5C19.7826 15.6129 15.6131 19.7826 10.5 19.7826Z" fill="white"/>
</svg>
