<svg width="25" height="25" viewBox="0 0 25 25" fill="none" xmlns="http://www.w3.org/2000/svg">
<path d="M18.2917 0H18.2794C17.7981 0 17.4083 0.390783 17.4083 0.871497C17.4083 1.35221 17.7981 1.74299 18.2794 1.74299H18.2924H21.4154L7.22388 15.941C7.06603 16.0989 6.9683 16.3165 6.9683 16.5577C6.9683 17.0393 7.3589 17.4292 7.83939 17.4292C8.07965 17.4292 8.29778 17.3316 8.45492 17.1744L22.6464 2.97633V6.10075V6.11302C22.6464 6.5946 23.0362 6.98451 23.5175 6.98451C23.9989 6.98451 24.3886 6.59458 24.3886 6.11302V6.10007V6.10075V1.01324C24.3963 0.971331 24.4 0.921587 24.4 0.872016C24.4 0.390433 24.0102 0.000518738 23.5289 0.000518738H23.5166H18.2907L18.2917 0ZM0.871095 5.22837C0.390607 5.22837 0 5.6183 0 6.09987V23.5285C0 24.0101 0.390602 24.4 0.871095 24.4H18.2917C18.7731 24.4 19.1628 24.0101 19.1628 23.5285V10.3793V10.367C19.1628 9.88545 18.773 9.49553 18.2917 9.49553C17.8104 9.49553 17.4206 9.88546 17.4206 10.367V10.38V10.3793V22.6572H1.74141V6.97076H14.0664H14.0786C14.56 6.97076 14.9497 6.58082 14.9497 6.09926C14.9497 5.61769 14.56 5.22776 14.0786 5.22776H14.0657L0.871095 5.22837Z" fill="white"/>
</svg>
